<svg width="78" height="91" viewBox="0 0 78 91" fill="none" xmlns="http://www.w3.org/2000/svg">
<g clip-path="url(#clip0_2_909)">
<path d="M32.8054 28.3517C23.3679 28.3517 15.7207 35.9988 15.7207 45.4364C15.7207 54.8739 23.3679 62.521 32.8054 62.521C42.2394 62.521 49.8901 54.8739 49.8901 45.4364C49.8901 35.9988 42.2394 28.3517 32.8054 28.3517Z" fill="#2DB3FF"/>
<path d="M30.418 45.4346V48.994L25.405 47.2143L20.3955 45.4346L25.405 43.6549L30.418 41.8751V45.4346Z" fill="white"/>
<path d="M40.1992 47.2143L35.1897 48.994V45.4346V41.8751L40.1992 43.6549L45.2086 45.4346L40.1992 47.2143Z" fill="white"/>
</g>
<path d="M25.5981 70.1381C11.6426 66.4397 3.35888 52.2379 7.16492 38.4059L5.74699 38.0361C1.7917 52.6077 10.5232 67.6232 25.2996 71.5435L25.5981 70.1381ZM25.2249 71.5435C39.9267 75.4638 55.0762 66.8095 59.0315 52.1639L57.6135 51.7941C53.8821 65.6261 39.5535 73.8365 25.5981 70.0641L25.2249 71.5435ZM59.0315 52.2379C62.9868 37.6662 54.2553 22.6508 39.4789 18.7305L39.1058 20.1359C53.0612 23.8342 61.3449 38.0361 57.5389 51.868L59.0315 52.2379Z" fill="#5AB2F9"/>
<path d="M1.04474 14.2943C18.2839 -2.79228 46.2694 -2.79228 63.5085 14.2943L64.5533 13.2587C46.7172 -4.41957 17.8361 -4.41957 -4.63559e-05 13.2587L1.04474 14.2943ZM63.5085 76.2053C46.2694 93.2918 18.2838 93.2918 1.04474 76.2053L-4.91527e-05 77.2408C17.8361 94.9191 46.7172 94.9191 64.5533 77.2408L63.5085 76.2053ZM63.5085 14.2943C80.7476 31.3808 80.7476 59.1187 63.5085 76.2053L64.5533 77.2408C82.3895 59.5625 82.3895 30.937 64.5533 13.2587L63.5085 14.2943Z" fill="#5AB2F9"/>
<defs>
<clipPath id="clip0_2_909">
<rect width="34.2048" height="34.2048" fill="white" transform="translate(15.7012 28.3322)"/>
</clipPath>
</defs>
</svg>
