<svg width="78" height="90" viewBox="0 0 78 90" fill="none" xmlns="http://www.w3.org/2000/svg">
<path d="M25.457 69.7527C11.5786 66.0747 3.3406 51.9513 7.12563 38.1956L5.71553 37.8278C1.78207 52.3191 10.4654 67.2516 25.1602 71.1503L25.457 69.7527ZM25.086 71.1503C39.7066 75.0489 54.7725 66.4425 58.7059 51.8777L57.2958 51.5099C53.585 65.2655 39.3355 73.4306 25.457 69.6791L25.086 71.1503ZM58.7059 51.9513C62.6394 37.46 53.9561 22.5274 39.2613 18.6288L38.8902 20.0264C52.7686 23.7044 61.0066 37.8278 57.2216 51.5835L58.7059 51.9513Z" fill="#5AB2F9"/>
<path d="M1.03919 14.2154C18.1831 -2.77687 46.0142 -2.77687 63.1582 14.2154L64.1972 13.1855C46.4595 -4.39518 17.7379 -4.39518 0.000169361 13.1855L1.03919 14.2154ZM63.1582 75.7846C46.0142 92.7769 18.1831 92.7769 1.03919 75.7846L0.00016658 76.8145C17.7378 94.3952 46.4595 94.3952 64.1972 76.8145L63.1582 75.7846ZM63.1582 14.2154C80.3022 31.2076 80.3021 58.7924 63.1582 75.7846L64.1972 76.8145C81.9349 59.2338 81.9349 30.7662 64.1972 13.1855L63.1582 14.2154Z" fill="#5AB2F9"/>
<circle cx="32.6225" cy="45.1839" r="17.008" fill="#2DB3FF"/>
<g clip-path="url(#clip0_2_967)">
<path d="M33.2701 37.625L31.9378 38.9573L37.2102 44.2392L25.7109 44.2392L25.7109 46.129L37.2102 46.129L31.9378 51.4109L33.2701 52.7432L40.8292 45.1841L33.2701 37.625Z" fill="white"/>
</g>
<defs>
<clipPath id="clip0_2_967">
<rect width="22.6773" height="22.6773" fill="white" transform="translate(21.9316 33.8438)"/>
</clipPath>
</defs>
</svg>
