<svg width="123" height="26" viewBox="0 0 123 26" fill="none" xmlns="http://www.w3.org/2000/svg">
<path d="M0 23.3352H2.58109V2.66482H0V0.432134H10.647V2.66482H7.92251V23.1191H15.3431V18.3657H19.2865V25.5679H0V23.3352Z" fill="#E00034"/>
<path d="M40.9216 23.4792C42.6423 23.4792 44.0643 22.9151 45.1876 21.7867C46.3108 20.6344 46.8724 18.9298 46.8724 16.6731V9.32687C46.8724 7.07018 46.3108 5.37766 45.1876 4.24931C44.0643 3.09695 42.6423 2.52078 40.9216 2.52078C39.2009 2.52078 37.7789 3.09695 36.6556 4.24931C35.5324 5.37766 34.9707 7.07018 34.9707 9.32687V16.6731C34.9707 18.9298 35.5324 20.6344 36.6556 21.7867C37.7789 22.9151 39.2009 23.4792 40.9216 23.4792ZM40.9216 26C39.2009 26 37.6116 25.7119 36.1537 25.1357C34.7198 24.5596 33.4771 23.7193 32.4255 22.615C31.3739 21.5106 30.5494 20.1542 29.952 18.5457C29.3545 16.9132 29.0557 15.0646 29.0557 13C29.0557 10.9354 29.3545 9.0988 29.952 7.49031C30.5494 5.8578 31.3739 4.48938 32.4255 3.38504C33.4771 2.2807 34.7198 1.44044 36.1537 0.864265C37.6116 0.288088 39.2009 0 40.9216 0C42.6423 0 44.2196 0.288088 45.6536 0.864265C47.1114 1.44044 48.3661 2.2807 49.4177 3.38504C50.4692 4.48938 51.2937 5.8578 51.8912 7.49031C52.4887 9.0988 52.7874 10.9354 52.7874 13C52.7874 15.0646 52.4887 16.9132 51.8912 18.5457C51.2937 20.1542 50.4692 21.5106 49.4177 22.615C48.3661 23.7193 47.1114 24.5596 45.6536 25.1357C44.2196 25.7119 42.6423 26 40.9216 26Z" fill="#E00034"/>
<path d="M74.9975 26C73.3485 26 71.8309 25.6999 70.4447 25.0997C69.0586 24.4995 67.8637 23.6473 66.8599 22.5429C65.8801 21.4146 65.1153 20.0582 64.5656 18.4737C64.0159 16.8652 63.7411 15.0526 63.7411 13.036C63.7411 10.9234 64.0398 9.06279 64.6373 7.45429C65.2348 5.82179 66.0593 4.45337 67.1108 3.34903C68.1863 2.24469 69.429 1.41644 70.8391 0.864265C72.273 0.288088 73.8145 0 75.4635 0C77.2082 0 78.5824 0.276085 79.5861 0.828255C80.5899 1.35642 81.2471 1.9326 81.5578 2.55679H81.737V0.432134H85.6804V8.31856H81.737V6.66205C81.737 5.41367 81.3068 4.42936 80.4465 3.70914C79.5861 2.96491 78.2597 2.5928 76.4673 2.5928C74.1491 2.5928 72.4284 3.20499 71.3051 4.42936C70.2058 5.62973 69.6561 7.41828 69.6561 9.79501V16.241C69.6561 18.4977 70.1699 20.2382 71.1976 21.4626C72.2491 22.663 73.707 23.2632 75.5711 23.2632C77.3396 23.2632 78.666 22.831 79.5503 21.9668C80.4345 21.1025 80.8767 19.9862 80.8767 18.6177V15.2327H77.0409V13H88.1539V15.2327H86.2181V25.5679H84.354L82.1672 22.0028H81.9521C81.8087 22.4109 81.5458 22.855 81.1634 23.3352C80.7811 23.7913 80.2792 24.2235 79.6578 24.6316C79.0603 25.0157 78.3673 25.3398 77.5786 25.6039C76.7899 25.868 75.9296 26 74.9975 26Z" fill="#E00034"/>
<path d="M111.134 23.4792C112.855 23.4792 114.277 22.9151 115.4 21.7867C116.523 20.6344 117.085 18.9298 117.085 16.6731V9.32687C117.085 7.07018 116.523 5.37766 115.4 4.24931C114.277 3.09695 112.855 2.52078 111.134 2.52078C109.413 2.52078 107.991 3.09695 106.868 4.24931C105.745 5.37766 105.183 7.07018 105.183 9.32687V16.6731C105.183 18.9298 105.745 20.6344 106.868 21.7867C107.991 22.9151 109.413 23.4792 111.134 23.4792ZM111.134 26C109.413 26 107.824 25.7119 106.366 25.1357C104.932 24.5596 103.69 23.7193 102.638 22.615C101.587 21.5106 100.762 20.1542 100.165 18.5457C99.5671 16.9132 99.2683 15.0646 99.2683 13C99.2683 10.9354 99.5671 9.0988 100.165 7.49031C100.762 5.8578 101.587 4.48938 102.638 3.38504C103.69 2.2807 104.932 1.44044 106.366 0.864265C107.824 0.288088 109.413 0 111.134 0C112.855 0 114.432 0.288088 115.866 0.864265C117.324 1.44044 118.579 2.2807 119.63 3.38504C120.682 4.48938 121.506 5.8578 122.104 7.49031C122.701 9.0988 123 10.9354 123 13C123 15.0646 122.701 16.9132 122.104 18.5457C121.506 20.1542 120.682 21.5106 119.63 22.615C118.579 23.7193 117.324 24.5596 115.866 25.1357C114.432 25.7119 112.855 26 111.134 26Z" fill="#E00034"/>
</svg>
